HIERARCHY
ROOT Hips
{
  OFFSET 0 0 0
  CHANNELS 6 Xposition Yposition Zposition Zrotation Yrotation Xrotation
  JOINT LeftThigh
  {
    OFFSET 8.409438 0 -5.917753
    CHANNELS 3 Zrotation Yrotation Xrotation
    JOINT LeftLeg
    {
      OFFSET 0 0 -42.358652
      CHANNELS 3 Zrotation Yrotation Xrotation
      JOINT LeftFoot
      {
        OFFSET 0 0 -39.357303
        CHANNELS 3 Zrotation Yrotation Xrotation
      }
    }
  }
  JOINT RightThigh
  {
    OFFSET -8.409438 0 -5.917753
    CHANNELS 3 Zrotation Yrotation Xrotation
    JOINT RightLeg
    {
      OFFSET 0 0 -42.358652
      CHANNELS 3 Zrotation Yrotation Xrotation
      JOINT RightFoot
      {
        OFFSET 0 0 -39.357303
        CHANNELS 3 Zrotation Yrotation Xrotation
      }
    }
  }
  JOINT SpineLow
  {
    OFFSET 0 0 4.719101
    CHANNELS 3 Zrotation Yrotation Xrotation
    JOINT SpineMid
    {
      OFFSET 0 0 12.899191
      CHANNELS 3 Zrotation Yrotation Xrotation
      JOINT Chest
      {
        OFFSET 0 0 12.899191
        CHANNELS 3 Zrotation Yrotation Xrotation
        JOINT LeftShoulder
        {
          OFFSET 7.550562 1.41573 9.438202
          CHANNELS 3 Zrotation Yrotation Xrotation
          JOINT LeftArm
          {
            OFFSET 9.155056 0 4.247191
            CHANNELS 3 Zrotation Yrotation Xrotation
            JOINT LeftForearm
            {
              OFFSET 0 0 25.771955
              CHANNELS 3 Zrotation Yrotation Xrotation
              JOINT LeftHand
              {
                OFFSET 0 0 25.197169
                CHANNELS 3 Zrotation Yrotation Xrotation
              }
            }
          }
        }
        JOINT RightShoulder
        {
          OFFSET -7.550562 1.41573 9.438202
          CHANNELS 3 Zrotation Yrotation Xrotation
          JOINT RightArm
          {
            OFFSET -9.155056 0 4.247191
            CHANNELS 3 Zrotation Yrotation Xrotation
            JOINT RightForearm
            {
              OFFSET 0 0 -25.771955
              CHANNELS 3 Zrotation Yrotation Xrotation
              JOINT RightHand
              {
                OFFSET 0 0 -25.197169
                CHANNELS 3 Zrotation Yrotation Xrotation
              }
            }
          }
        }
        JOINT Neck
        {
          OFFSET 0 0 15.101124
          CHANNELS 3 Zrotation Yrotation Xrotation
          JOINT Head
          {
            OFFSET 0 0 11.325843
            CHANNELS 3 Zrotation Yrotation Xrotation
            End Site
            {
              OFFSET 0 0 14.157303
            }
          }
        }
      }
    }
  }
}
MOTION
Frames: 10
Frame Time: 0.0
0.0  89.887642  0.0  10.220291  -59.736352  -106.718768  35.888859  -35.298559  -26.660108  16.046444  25.671882  73.133644  -1.253935  0.189511  0.156662  1.269309  26.550974  -25.670088  9.99197  6.005543  49.079488  10.482857  2.462003  -2.048508  0.765671  1.613962  -0.124611  2.087414  4.415032  -0.28981  2.087414  4.415032  -0.28981  -10.984249  20.865808  11.690981  -87.414868  51.053669  -77.235762  -36.439435  11.21756  87.148996  73.173743  -20.506099  1.957348  -2.480382  -2.450938  26.581596  139.026895  32.575427  46.75717  -10.693855  2.556209  -74.17524  86.449406  6.600643  -21.287129  14.171207  -6.952267  5.335332  10.67718  -5.094343  4.161166  
0.0  89.887642  0.0  10.394964  -59.729346  -106.974413  36.561466  -35.287712  -26.724914  15.53892  25.742315  72.748455  0.07376  1.355088  1.005695  0.520344  26.22405  -26.464289  10.73025  6.216041  49.96308  10.590197  2.532279  -2.08409  0.729321  1.633098  -0.006475  1.995887  4.463639  0.031657  1.995887  4.463639  0.031657  -10.991932  20.641312  11.381566  -88.198137  50.407208  -77.898538  -36.221988  11.533678  87.409732  73.018197  -20.511341  2.142442  -2.224435  -2.504882  26.02511  138.685062  32.306334  46.293292  -10.732906  2.55082  -73.872333  86.369951  6.36863  -21.190531  14.230441  -6.920965  4.875284  10.716008  -5.08099  3.81634  
0.0  89.887642  0.0  10.622709  -59.523869  -107.224451  37.223414  -35.207725  -26.654864  14.926025  25.862461  72.071074  0.080927  1.57493  0.994114  -0.739322  25.864758  -27.160565  11.772355  6.514031  50.511063  10.798798  2.558701  -2.252271  0.660496  1.641372  0.07786  1.813254  4.484005  0.258052  1.813254  4.484006  0.258051  -10.922563  20.589144  11.035629  -88.947041  50.106491  -78.334494  -36.025702  11.566538  87.536945  72.853034  -20.538969  2.249262  -1.81977  -2.379143  25.688418  138.238703  32.169086  45.977064  -10.721742  2.29173  -73.876342  86.568908  6.292636  -21.230728  14.276729  -6.907656  4.573232  10.747103  -5.077659  3.590177  
0.0  89.887642  0.0  10.833664  -59.166785  -107.470039  37.719067  -35.186891  -26.350877  14.480184  25.89688  71.328298  -0.025189  1.685464  0.928915  -2.299928  25.540414  -27.576988  12.990103  6.646947  50.621707  10.934332  2.617301  -2.467795  0.580027  1.658653  0.142603  1.597538  4.530019  0.430216  1.597538  4.530018  0.430216  -10.820752  20.557532  10.659242  -89.670311  50.228566  -78.566285  -35.867117  11.650413  87.591762  72.896532  -20.5343  2.184172  -1.309047  -2.299144  25.600912  137.610214  32.183833  45.646382  -10.6325  1.98423  -73.947402  87.07666  6.295055  -21.352887  14.234004  -6.999595  4.416903  10.713599  -5.150583  3.474561  
0.0  89.887642  0.0  10.997814  -58.755353  -107.594453  38.116529  -35.214737  -25.974999  14.319669  25.758879  70.63594  -0.404241  1.688047  0.790642  -3.82194  25.401624  -27.881807  14.043648  6.552882  50.491856  10.961339  2.691905  -2.719344  0.49876  1.684004  0.189345  1.378554  4.598886  0.553128  1.378554  4.598885  0.553128  -10.886518  20.54514  10.240554  -90.177216  50.608218  -78.674567  -35.985284  11.629835  87.458472  72.805251  -20.536195  2.19591  -1.176721  -2.271193  25.301277  137.126603  32.04349  45.135449  -10.444605  1.879909  -74.018391  87.624119  6.330369  -21.515476  14.209179  -7.111491  4.37598  10.694901  -5.235681  3.4461  
0.0  89.887642  0.0  11.239473  -58.427163  -107.720299  38.40824  -35.326512  -25.665649  14.418549  25.551637  70.085602  -0.840689  1.717572  0.711519  -4.601607  25.571831  -27.930697  14.441093  6.435675  50.234198  10.945137  2.715984  -2.9357  0.422238  1.721411  0.226057  1.172069  4.701138  0.648989  1.172069  4.701138  0.648989  -10.83442  20.461888  9.846797  -90.644899  51.041156  -78.841885  -36.1265  11.545595  87.203735  72.477197  -20.417889  2.773175  -1.002032  -2.357049  24.883733  136.568464  31.969563  44.599853  -10.137188  2.140292  -74.066372  87.980881  6.414324  -21.627965  14.231  -7.202156  4.382935  10.711634  -5.303426  3.453609  
0.0  89.887642  0.0  11.449128  -58.228873  -107.750173  38.701105  -35.502461  -25.454274  14.686167  25.40428  69.692391  -1.19056  1.735151  0.627719  -4.449505  25.926254  -27.644676  13.990348  6.46379  49.923951  10.868796  2.752822  -3.176831  0.37259  1.745558  0.229792  1.036695  4.76758  0.656077  1.036695  4.76758  0.656077  -10.655134  20.303033  9.620657  -91.336955  51.491125  -79.169691  -36.296238  11.540721  86.979715  72.339033  -20.268745  3.153241  -0.974424  -2.438179  24.436379  136.162636  31.85151  44.118781  -9.879994  2.664662  -74.11392  88.129205  6.553657  -21.698612  14.251086  -7.201668  4.475426  10.7278  -5.300783  3.523163  
0.0  89.887642  0.0  11.881678  -58.189941  -107.800338  39.102147  -35.493143  -25.450497  15.015269  25.274748  69.447719  -1.559918  1.7316  0.451155  -3.747572  26.38178  -27.263939  13.060036  6.693542  49.58589  10.738254  2.773147  -3.458908  0.324417  1.777846  0.197099  0.902763  4.856777  0.56356  0.902763  4.856777  0.563561  -10.228987  20.083741  9.447888  -92.172958  51.838372  -79.817858  -36.392511  10.564545  86.26074  73.348792  -19.25372  3.815398  -1.16258  -2.587036  23.918797  136.35356  31.524624  43.950112  -10.098842  3.282671  -74.078236  88.008729  6.487892  -21.403245  14.396453  -7.120975  4.539605  10.837177  -5.23772  3.571207  
0.0  89.887642  0.0  11.93492  -58.187933  -107.736822  39.539701  -35.688737  -25.517797  15.234713  25.180044  69.270576  -1.73204  1.778122  0.386698  -2.94109  26.581692  -26.569958  12.038844  7.039359  49.167509  10.51797  2.890758  -3.688472  0.305994  1.769883  0.172612  0.85045  4.835493  0.495049  0.85045  4.835493  0.495049  -9.955006  19.934846  9.371944  -93.085439  52.249971  -80.500003  -36.420018  10.118403  86.108153  73.082709  -19.074244  4.40706  -1.039587  -2.582648  23.641086  136.409232  31.437466  43.874621  -10.304842  3.86515  -74.126202  87.816869  6.762132  -21.638474  14.441787  -7.002575  4.615025  10.8716  -5.146764  3.625591  
0.0  89.887642  0.0  11.646569  -57.738949  -107.018472  39.891346  -35.553017  -26.057339  15.248288  25.043034  69.053284  -1.952291  1.778104  0.385462  -2.909892  26.650259  -26.390836  11.063184  7.491371  48.791689  10.345989  3.328391  -3.78032  0.213334  1.747932  0.079418  0.589823  4.777046  0.232895  0.589823  4.777046  0.232895  -9.805703  19.906547  9.339534  -93.780802  52.559374  -81.197188  -36.280402  9.327439  85.802892  72.525265  -19.124838  5.048275  -0.952724  -2.53827  23.503365  136.428953  31.480832  43.910155  -10.378886  4.242086  -74.219624  87.589286  7.025011  -21.861539  14.472861  -6.845959  4.698495  10.895248  -5.027026  3.684961  
